<mxfile host="app.diagrams.net" agent="Mozilla/5.0 (Windows NT 10.0; Win64; x64) AppleWebKit/537.36 (KHTML, like Gecko) Chrome/130.0.0.0 Safari/537.36" version="24.8.4">
  <diagram name="Página-1" id="BCHF-5Q5EMjY2CzNp5F7">
    <mxGraphModel dx="1313" dy="724" grid="0" gridSize="10" guides="1" tooltips="1" connect="1" arrows="1" fold="1" page="1" pageScale="1" pageWidth="700" pageHeight="1000" math="0" shadow="0">
      <root>
        <mxCell id="0" />
        <mxCell id="1" parent="0" />
        <mxCell id="UvF5SmiHXKKENpEFAL-r-3" value="&lt;div style=&quot;&quot;&gt;&lt;span class=&quot;notion-enable-hover&quot; data-token-index=&quot;0&quot; style=&quot;font-weight: 600; font-size: 33px;&quot;&gt;CEDICA&lt;/span&gt;&lt;/div&gt;" style="text;html=1;align=center;verticalAlign=middle;whiteSpace=wrap;rounded=0;" parent="1" vertex="1">
          <mxGeometry x="154" y="56" width="392" height="167" as="geometry" />
        </mxCell>
        <mxCell id="UvF5SmiHXKKENpEFAL-r-7" value="&lt;font style=&quot;font-size: 24px;&quot;&gt;Volver al menu&lt;/font&gt;" style="rounded=0;whiteSpace=wrap;html=1;" parent="1" vertex="1">
          <mxGeometry x="232" y="802" width="237" height="126" as="geometry" />
        </mxCell>
        <mxCell id="y9TVDUa1JKEA_eRrkemc-1" value="&lt;div style=&quot;&quot;&gt;&lt;p style=&quot;box-sizing: border-box; font-family: &amp;quot;Source Sans Pro&amp;quot;, &amp;quot;Source Sans Pro-fallback&amp;quot;, sans-serif; -webkit-font-smoothing: antialiased; margin: 0px 0px 8px; font-size: 16px; text-align: start;&quot;&gt;&lt;font style=&quot;--darkreader-inline-color: #d8d4cf;&quot; data-darkreader-inline-color=&quot;&quot; color=&quot;#e8e6e3&quot;&gt;El Centro de Equitación para Personas con Discapacidad y Carenciadas, CEDICA, es una Asociación Civil sin Fines de Lucro, fundada en 1994 en la ciudad de La Plata, Provincia de Buenos Aires.&lt;/font&gt;&lt;/p&gt;&lt;p style=&quot;box-sizing: border-box; font-family: &amp;quot;Source Sans Pro&amp;quot;, &amp;quot;Source Sans Pro-fallback&amp;quot;, sans-serif; -webkit-font-smoothing: antialiased; margin: 8px 0px; font-size: 16px; text-align: start;&quot;&gt;&lt;font style=&quot;--darkreader-inline-color: #d8d4cf;&quot; data-darkreader-inline-color=&quot;&quot; color=&quot;#e8e6e3&quot;&gt;La misión de CEDICA es la INCLUSIÓN SOCIAL: trabajamos con la finalidad de igualar oportunidades en procura de la reinserción familiar, el logro de la escolaridad, la integración laboral y la mejora integral de la calidad de vida de nuestros alumnos y alumnas.&lt;/font&gt;&lt;/p&gt;&lt;p style=&quot;box-sizing: border-box; font-family: &amp;quot;Source Sans Pro&amp;quot;, &amp;quot;Source Sans Pro-fallback&amp;quot;, sans-serif; -webkit-font-smoothing: antialiased; margin: 8px 0px; font-size: 16px; text-align: start;&quot;&gt;&lt;font style=&quot;--darkreader-inline-color: #d8d4cf;&quot; data-darkreader-inline-color=&quot;&quot; color=&quot;#e8e6e3&quot;&gt;La actividad que realizamos se denomina internacionalmente Rehabilitación Ecuestre y es una terapia integral que apunta a la recuperación de la persona en sus dimensiones biológica, psíquica y social.&lt;/font&gt;&lt;/p&gt;&lt;p style=&quot;box-sizing: border-box; font-family: &amp;quot;Source Sans Pro&amp;quot;, &amp;quot;Source Sans Pro-fallback&amp;quot;, sans-serif; -webkit-font-smoothing: antialiased; margin: 8px 0px; font-size: 16px; text-align: start;&quot;&gt;&lt;font style=&quot;--darkreader-inline-color: #d8d4cf;&quot; data-darkreader-inline-color=&quot;&quot; color=&quot;#e8e6e3&quot;&gt;La Rehabilitación Ecuestre utiliza al caballo de manera terapéutica, aprovechando las características de su naturaleza innata y de su medio ambiente como facilitadores del proceso rehabilitador.&lt;/font&gt;&lt;/p&gt;&lt;/div&gt;" style="text;html=1;align=center;verticalAlign=middle;whiteSpace=wrap;rounded=0;" vertex="1" parent="1">
          <mxGeometry x="34" y="281" width="646" height="276" as="geometry" />
        </mxCell>
      </root>
    </mxGraphModel>
  </diagram>
</mxfile>
